<?xml version="1.0" standalone="no"?><!DOCTYPE svg PUBLIC "-//W3C//DTD SVG 1.1//EN" "http://www.w3.org/Graphics/SVG/1.1/DTD/svg11.dtd"><svg t="1690532243790" class="icon" viewBox="0 0 1024 1024" version="1.1" xmlns="http://www.w3.org/2000/svg" p-id="2292" xmlns:xlink="http://www.w3.org/1999/xlink" width="200" height="200"><path d="M1024 512c0 282.4-229.6 512-512 512C229.6 1024 0 794.4 0 512S229.6 0 512 0C794.4 0 1024 229.6 1024 512zM512 72.8C269.6 72.8 72.8 269.6 72.8 512c0 242.4 196.8 439.2 439.2 439.2s439.2-196.8 439.2-439.2C951.2 269.6 754.4 72.8 512 72.8zM724 533.6C660.8 571.2 464.8 688 400 726.4c-25.6 16-48 13.6-48-25.6 0-71.2 0-301.6 0-380.8 0-32.8 19.2-40 45.6-23.2 68.8 40.8 261.6 156 324 192.8C740.8 502.4 740.8 524.8 724 533.6z" p-id="2293" fill="#000000"></path></svg>